<mxfile host="app.diagrams.net" modified="2022-01-07T15:18:17.203Z" agent="5.0 (Windows NT 10.0; Win64; x64) AppleWebKit/537.36 (KHTML, like Gecko) Chrome/96.0.4664.110 Safari/537.36" etag="gCTSui2xx5LQVuwRzL-i" version="16.2.2" type="github" pages="2">
  <diagram id="E948EfgCOJVRb2plcjeF" name="Page-1">
    <mxGraphModel dx="868" dy="390" grid="1" gridSize="10" guides="1" tooltips="1" connect="1" arrows="1" fold="1" page="1" pageScale="1" pageWidth="827" pageHeight="1169" math="0" shadow="0">
      <root>
        <mxCell id="0" />
        <mxCell id="1" parent="0" />
        <mxCell id="jdlnI0Il5XYoSt5V_vpM-80" style="edgeStyle=orthogonalEdgeStyle;rounded=0;orthogonalLoop=1;jettySize=auto;html=1;exitX=1;exitY=0.5;exitDx=0;exitDy=0;entryX=0;entryY=0.5;entryDx=0;entryDy=0;fontColor=#000000;" parent="1" source="jdlnI0Il5XYoSt5V_vpM-4" target="jdlnI0Il5XYoSt5V_vpM-79" edge="1">
          <mxGeometry relative="1" as="geometry" />
        </mxCell>
        <mxCell id="jdlnI0Il5XYoSt5V_vpM-4" value="F15 :Envoyer les CR au drone ou au VAB" style="rounded=0;whiteSpace=wrap;html=1;" parent="1" vertex="1">
          <mxGeometry x="90" y="1120" width="120" height="60" as="geometry" />
        </mxCell>
        <mxCell id="jdlnI0Il5XYoSt5V_vpM-79" value="&lt;font color=&quot;#0000ff&quot;&gt;cf communication Husky/drones et Husky/VAB&lt;/font&gt;" style="rounded=0;whiteSpace=wrap;html=1;labelBackgroundColor=none;fontColor=#000000;strokeColor=#000000;fillColor=default;" parent="1" vertex="1">
          <mxGeometry x="320" y="1120" width="110" height="60" as="geometry" />
        </mxCell>
      </root>
    </mxGraphModel>
  </diagram>
  <diagram id="lp-3FWoehNaO1ZD1mjEL" name="Page-1">
    <mxGraphModel>
      <root>
        <mxCell id="0" />
        <mxCell id="1" parent="0" />
      </root>
    </mxGraphModel>
  </diagram>
</mxfile>
